{"asset":{"generator":"Khronos glTF Blender I/O v5.0.21","version":"2.0"},"scene":0,"scenes":[{"name":"Scene","nodes":[0]}],"nodes":[{"mesh":0,"name":"penguin-07-43-toy-cannon-hat-nutcracker-penguin"}],"materials":[{"doubleSided":true,"name":"tripo_node_0645203c-f537-4269-a367-f3ff3a4b4b21_material","pbrMetallicRoughness":{"baseColorTexture":{"index":0},"metallicFactor":0,"roughnessFactor":0.5}}],"meshes":[{"name":"meshes[0].031","primitives":[{"attributes":{"POSITION":0,"NORMAL":1,"TEXCOORD_0":2},"indices":3,"material":0}]}],"textures":[{"sampler":0,"source":0}],"images":[{"mimeType":"image/jpeg","name":"penguin+character+3d+model_basecolor","uri":"penguin-character-3d-model_basecolor.jpg"}],"accessors":[{"bufferView":0,"componentType":5126,"count":1952,"max":[0.08960612863302231,0.29474836587905884,0.14999999105930328],"min":[-0.0896061435341835,0,-0.013457326218485832],"type":"VEC3"},{"bufferView":1,"componentType":5126,"count":1952,"type":"VEC3"},{"bufferView":2,"componentType":5126,"count":1952,"type":"VEC2"},{"bufferView":3,"componentType":5125,"count":3348,"type":"SCALAR","byteOffset":0}],"bufferViews":[{"buffer":0,"byteLength":23424,"byteOffset":0,"target":34962},{"buffer":0,"byteLength":23424,"byteOffset":23424,"target":34962},{"buffer":0,"byteLength":15616,"byteOffset":46848,"target":34962},{"buffer":0,"byteLength":13392,"byteOffset":69148,"target":34963}],"samplers":[{"magFilter":9729,"minFilter":9987}],"buffers":[{"byteLength":82540,"uri":"penguin-07-43-toy-cannon-hat-nutcracker-penguin.bin"}]}