{"asset":{"generator":"Khronos glTF Blender I/O v5.0.21","version":"2.0"},"scene":0,"scenes":[{"name":"Scene","nodes":[0]}],"nodes":[{"mesh":0,"name":"penguin-07-21-drummer-nutcracker-penguin"}],"materials":[{"doubleSided":true,"name":"tripo_node_0645203c-f537-4269-a367-f3ff3a4b4b21_material","pbrMetallicRoughness":{"baseColorTexture":{"index":0},"metallicFactor":0,"roughnessFactor":0.5}}],"meshes":[{"name":"meshes[0].021","primitives":[{"attributes":{"POSITION":0,"NORMAL":1,"TEXCOORD_0":2},"indices":3,"material":0}]}],"textures":[{"sampler":0,"source":0}],"images":[{"mimeType":"image/jpeg","name":"penguin+character+3d+model_basecolor","uri":"penguin-character-3d-model_basecolor.jpg"}],"accessors":[{"bufferView":0,"componentType":5126,"count":1734,"max":[0.09316769987344742,0.25465837121009827,0.14999999105930328],"min":[-0.09316769987344742,0,-0.020807458087801933],"type":"VEC3"},{"bufferView":1,"componentType":5126,"count":1734,"type":"VEC3"},{"bufferView":2,"componentType":5126,"count":1734,"type":"VEC2"},{"bufferView":3,"componentType":5123,"count":3024,"type":"SCALAR"}],"bufferViews":[{"buffer":0,"byteLength":20808,"byteOffset":0,"target":34962},{"buffer":0,"byteLength":20808,"byteOffset":20808,"target":34962},{"buffer":0,"byteLength":13872,"byteOffset":41616,"target":34962},{"buffer":0,"byteLength":6048,"byteOffset":55488,"target":34963}],"samplers":[{"magFilter":9729,"minFilter":9987}],"buffers":[{"byteLength":61536,"uri":"penguin-07-21-drummer-nutcracker-penguin.bin"}]}