{"asset":{"generator":"Khronos glTF Blender I/O v5.0.21","version":"2.0"},"scene":0,"scenes":[{"name":"Scene","nodes":[0]}],"nodes":[{"mesh":0,"name":"penguin-07-34-white-winter-nutcracker-penguin"}],"materials":[{"doubleSided":true,"name":"tripo_node_0645203c-f537-4269-a367-f3ff3a4b4b21_material","pbrMetallicRoughness":{"baseColorTexture":{"index":0},"metallicFactor":0,"roughnessFactor":0.5}}],"meshes":[{"name":"meshes[0].028","primitives":[{"attributes":{"POSITION":0,"NORMAL":1,"TEXCOORD_0":2},"indices":3,"material":0}]}],"textures":[{"sampler":0,"source":0}],"images":[{"mimeType":"image/jpeg","name":"penguin+character+3d+model_basecolor","uri":"penguin-character-3d-model_basecolor.jpg"}],"accessors":[{"bufferView":0,"componentType":5126,"count":2330,"max":[0.09457964450120926,0.2727876603603363,0.15000000596046448],"min":[-0.09457964450120926,0,-0.015265488997101784],"type":"VEC3"},{"bufferView":1,"componentType":5126,"count":2330,"type":"VEC3"},{"bufferView":2,"componentType":5126,"count":2330,"type":"VEC2"},{"bufferView":3,"componentType":5125,"count":4092,"type":"SCALAR","byteOffset":0}],"bufferViews":[{"buffer":0,"byteLength":27960,"byteOffset":0,"target":34962},{"buffer":0,"byteLength":27960,"byteOffset":27960,"target":34962},{"buffer":0,"byteLength":18640,"byteOffset":55920,"target":34962},{"buffer":0,"byteLength":16368,"byteOffset":82732,"target":34963}],"samplers":[{"magFilter":9729,"minFilter":9987}],"buffers":[{"byteLength":99100,"uri":"penguin-07-34-white-winter-nutcracker-penguin.bin"}]}