{"asset":{"generator":"Khronos glTF Blender I/O v5.0.21","version":"2.0"},"scene":0,"scenes":[{"name":"Scene","nodes":[0]}],"nodes":[{"mesh":0,"name":"penguin-07-32-pink-toy-soldier-nutcracker-penguin"}],"materials":[{"doubleSided":true,"name":"tripo_node_0645203c-f537-4269-a367-f3ff3a4b4b21_material","pbrMetallicRoughness":{"baseColorTexture":{"index":0},"metallicFactor":0,"roughnessFactor":0.5}}],"meshes":[{"name":"meshes[0].026","primitives":[{"attributes":{"POSITION":0,"NORMAL":1,"TEXCOORD_0":2},"indices":3,"material":0}]}],"textures":[{"sampler":0,"source":0}],"images":[{"mimeType":"image/jpeg","name":"penguin+character+3d+model_basecolor","uri":"penguin-character-3d-model_basecolor.jpg"}],"accessors":[{"bufferView":0,"componentType":5126,"count":1762,"max":[0.08794248104095459,0.2767699062824249,0.15000000596046448],"min":[-0.08794248104095459,0,-0.011946897953748703],"type":"VEC3"},{"bufferView":1,"componentType":5126,"count":1762,"type":"VEC3"},{"bufferView":2,"componentType":5126,"count":1762,"type":"VEC2"},{"bufferView":3,"componentType":5125,"count":3120,"type":"SCALAR","byteOffset":0}],"bufferViews":[{"buffer":0,"byteLength":21144,"byteOffset":0,"target":34962},{"buffer":0,"byteLength":21144,"byteOffset":21144,"target":34962},{"buffer":0,"byteLength":14096,"byteOffset":42288,"target":34962},{"buffer":0,"byteLength":12480,"byteOffset":62612,"target":34963}],"samplers":[{"magFilter":9729,"minFilter":9987}],"buffers":[{"byteLength":75092,"uri":"penguin-07-32-pink-toy-soldier-nutcracker-penguin.bin"}]}