{"asset":{"generator":"Khronos glTF Blender I/O v5.0.21","version":"2.0"},"scene":0,"scenes":[{"name":"Scene","nodes":[0]}],"nodes":[{"mesh":0,"name":"penguin-porcelain-01-42-cameo-brooch"}],"materials":[{"doubleSided":true,"name":"tripo_mat_a7a2445a","pbrMetallicRoughness":{"baseColorTexture":{"index":0},"metallicFactor":0,"roughnessFactor":0.8999999761581421}}],"meshes":[{"name":"tripo_mesh_a7a2445a.030","primitives":[{"attributes":{"POSITION":0,"NORMAL":1,"TEXCOORD_0":2},"indices":3,"material":0}]}],"textures":[{"sampler":0,"source":0}],"images":[{"mimeType":"image/jpeg","name":"cute_penguin_doll_3d_model_basecolor","uri":"cute_penguin_doll_3d_model_basecolor.jpg"}],"accessors":[{"bufferView":0,"componentType":5126,"count":2008,"max":[0.09999999403953552,0.25668445229530334,0.1403743177652359],"min":[-0.09999999403953552,0,-0.1403743177652359],"type":"VEC3"},{"bufferView":1,"componentType":5126,"count":2008,"type":"VEC3"},{"bufferView":2,"componentType":5126,"count":2008,"type":"VEC2"},{"bufferView":3,"componentType":5123,"count":3300,"type":"SCALAR"}],"bufferViews":[{"buffer":0,"byteLength":24096,"byteOffset":0,"target":34962},{"buffer":0,"byteLength":24096,"byteOffset":24096,"target":34962},{"buffer":0,"byteLength":16064,"byteOffset":48192,"target":34962},{"buffer":0,"byteLength":6600,"byteOffset":64256,"target":34963}],"samplers":[{"magFilter":9729,"minFilter":9987}],"buffers":[{"byteLength":70856,"uri":"penguin-porcelain-01-42-cameo-brooch.bin"}]}