{"asset":{"generator":"Khronos glTF Blender I/O v5.0.21","version":"2.0"},"scene":0,"scenes":[{"name":"Scene","nodes":[0]}],"nodes":[{"mesh":0,"name":"penguin-porcelain-01-13-powder-blue-bonnet"}],"materials":[{"doubleSided":true,"name":"tripo_mat_a7a2445a","pbrMetallicRoughness":{"baseColorTexture":{"index":0},"metallicFactor":0,"roughnessFactor":0.8999999761581421}}],"meshes":[{"name":"tripo_mesh_a7a2445a.019","primitives":[{"attributes":{"POSITION":0,"NORMAL":1,"TEXCOORD_0":2},"indices":3,"material":0}]}],"textures":[{"sampler":0,"source":0}],"images":[{"mimeType":"image/jpeg","name":"cute_penguin_doll_3d_model_basecolor","uri":"cute_penguin_doll_3d_model_basecolor.jpg"}],"accessors":[{"bufferView":0,"componentType":5126,"count":1017,"max":[0.10000000149011612,0.2624671757221222,0.13805773854255676],"min":[-0.10000000149011612,0,-0.13805773854255676],"type":"VEC3"},{"bufferView":1,"componentType":5126,"count":1017,"type":"VEC3"},{"bufferView":2,"componentType":5126,"count":1017,"type":"VEC2"},{"bufferView":3,"componentType":5123,"count":1890,"type":"SCALAR"}],"bufferViews":[{"buffer":0,"byteLength":12204,"byteOffset":0,"target":34962},{"buffer":0,"byteLength":12204,"byteOffset":12204,"target":34962},{"buffer":0,"byteLength":8136,"byteOffset":24408,"target":34962},{"buffer":0,"byteLength":3780,"byteOffset":32544,"target":34963}],"samplers":[{"magFilter":9729,"minFilter":9987}],"buffers":[{"byteLength":36324,"uri":"penguin-porcelain-01-13-powder-blue-bonnet.bin"}]}