{"asset":{"generator":"Khronos glTF Blender I/O v5.0.21","version":"2.0"},"scene":0,"scenes":[{"name":"Scene","nodes":[0]}],"nodes":[{"mesh":0,"name":"penguin-porcelain-01-14-lilac-parasol.001"}],"materials":[{"doubleSided":true,"name":"tripo_mat_a7a2445a.001","pbrMetallicRoughness":{"baseColorTexture":{"index":0},"metallicFactor":0,"roughnessFactor":0.8999999761581421}}],"meshes":[{"name":"tripo_mesh_a7a2445a.001","primitives":[{"attributes":{"POSITION":0,"NORMAL":1,"TEXCOORD_0":2},"indices":3,"material":0}]}],"textures":[{"sampler":0,"source":0}],"images":[{"mimeType":"image/jpeg","name":"cute_penguin_doll_3d_model_basecolor","uri":"cute_penguin_doll_3d_model_basecolor.jpg"}],"accessors":[{"bufferView":0,"componentType":5126,"count":2846,"max":[0.09999998658895493,0.2175675332546234,0.1344594657421112],"min":[-0.10000000894069672,0,-0.1344594657421112],"type":"VEC3"},{"bufferView":1,"componentType":5126,"count":2846,"type":"VEC3"},{"bufferView":2,"componentType":5126,"count":2846,"type":"VEC2"},{"bufferView":3,"componentType":5123,"count":4440,"type":"SCALAR"}],"bufferViews":[{"buffer":0,"byteLength":34152,"byteOffset":0,"target":34962},{"buffer":0,"byteLength":34152,"byteOffset":34152,"target":34962},{"buffer":0,"byteLength":22768,"byteOffset":68304,"target":34962},{"buffer":0,"byteLength":8880,"byteOffset":91072,"target":34963}],"samplers":[{"magFilter":9729,"minFilter":9987}],"buffers":[{"byteLength":99952,"uri":"penguin-porcelain-01-14-lilac-parasol.bin"}]}