{"asset":{"generator":"Khronos glTF Blender I/O v5.0.21","version":"2.0"},"scene":0,"scenes":[{"name":"Scene","nodes":[0]}],"nodes":[{"mesh":0,"name":"penguin-10-31-marshmallow-clay-penguin"}],"materials":[{"doubleSided":true,"name":"tripo_node_b87188a9-cad2-4ac0-8fd5-882b410daa64_material","pbrMetallicRoughness":{"baseColorTexture":{"index":0},"metallicFactor":0,"roughnessFactor":0.5}}],"meshes":[{"name":"meshes[0].025","primitives":[{"attributes":{"POSITION":0,"NORMAL":1,"TEXCOORD_0":2},"indices":3,"material":0}]}],"textures":[{"sampler":0,"source":0}],"images":[{"mimeType":"image/jpeg","name":"clay+penguin+3d+model_basecolor","uri":"clay-penguin-3d-model_basecolor.jpg"}],"accessors":[{"bufferView":0,"componentType":5126,"count":368,"max":[0.10000000149011612,0.22886598110198975,0.08865980058908463],"min":[-0.10000000149011612,0,-0.08865980058908463],"type":"VEC3"},{"bufferView":1,"componentType":5126,"count":368,"type":"VEC3"},{"bufferView":2,"componentType":5126,"count":368,"type":"VEC2"},{"bufferView":3,"componentType":5123,"count":1668,"type":"SCALAR"}],"bufferViews":[{"buffer":0,"byteLength":4416,"byteOffset":0,"target":34962},{"buffer":0,"byteLength":4416,"byteOffset":4416,"target":34962},{"buffer":0,"byteLength":2944,"byteOffset":8832,"target":34962},{"buffer":0,"byteLength":3336,"byteOffset":11776,"target":34963}],"samplers":[{"magFilter":9729,"minFilter":9987}],"buffers":[{"byteLength":15112,"uri":"penguin-10-31-marshmallow-clay-penguin.bin"}]}