{"asset":{"generator":"Khronos glTF Blender I/O v5.0.21","version":"2.0"},"scene":0,"scenes":[{"name":"Scene","nodes":[0]}],"nodes":[{"mesh":0,"name":"penguin-10-13-mint-chip-clay-penguin"}],"materials":[{"doubleSided":true,"name":"tripo_node_b87188a9-cad2-4ac0-8fd5-882b410daa64_material","pbrMetallicRoughness":{"baseColorTexture":{"index":0},"metallicFactor":0,"roughnessFactor":0.5}}],"meshes":[{"name":"meshes[0].019","primitives":[{"attributes":{"POSITION":0,"NORMAL":1,"TEXCOORD_0":2},"indices":3,"material":0}]}],"textures":[{"sampler":0,"source":0}],"images":[{"mimeType":"image/jpeg","name":"clay+penguin+3d+model_basecolor","uri":"clay-penguin-3d-model_basecolor.jpg"}],"accessors":[{"bufferView":0,"componentType":5126,"count":356,"max":[0.09999999403953552,0.22635658085346222,0.08863049000501633],"min":[-0.09999999403953552,0,-0.08863049000501633],"type":"VEC3"},{"bufferView":1,"componentType":5126,"count":356,"type":"VEC3"},{"bufferView":2,"componentType":5126,"count":356,"type":"VEC2"},{"bufferView":3,"componentType":5123,"count":1476,"type":"SCALAR"}],"bufferViews":[{"buffer":0,"byteLength":4272,"byteOffset":0,"target":34962},{"buffer":0,"byteLength":4272,"byteOffset":4272,"target":34962},{"buffer":0,"byteLength":2848,"byteOffset":8544,"target":34962},{"buffer":0,"byteLength":2952,"byteOffset":11392,"target":34963}],"samplers":[{"magFilter":9729,"minFilter":9987}],"buffers":[{"byteLength":14344,"uri":"penguin-10-13-mint-chip-clay-penguin.bin"}]}