{"asset":{"generator":"Khronos glTF Blender I/O v5.0.21","version":"2.0"},"scene":0,"scenes":[{"name":"Scene","nodes":[0]}],"nodes":[{"mesh":0,"name":"penguin-felt-01-11-red-scarf"}],"materials":[{"doubleSided":true,"name":"tripo_mat_2b4dbb2f","pbrMetallicRoughness":{"baseColorTexture":{"index":0},"metallicFactor":0,"roughnessFactor":0.8999999761581421}}],"meshes":[{"name":"tripo_mesh_2b4dbb2f.017","primitives":[{"attributes":{"POSITION":0,"NORMAL":1,"TEXCOORD_0":2},"indices":3,"material":0}]}],"textures":[{"sampler":0,"source":0}],"images":[{"mimeType":"image/jpeg","name":"penguin_plush_3d_model_basecolor","uri":"penguin_plush_3d_model_basecolor.jpg"}],"accessors":[{"bufferView":0,"componentType":5126,"count":690,"max":[0.10000000149011612,0.2146226465702057,0.07900944352149963],"min":[-0.10000000149011612,0,-0.07900945097208023],"type":"VEC3"},{"bufferView":1,"componentType":5126,"count":690,"type":"VEC3"},{"bufferView":2,"componentType":5126,"count":690,"type":"VEC2"},{"bufferView":3,"componentType":5123,"count":1158,"type":"SCALAR"}],"bufferViews":[{"buffer":0,"byteLength":8280,"byteOffset":0,"target":34962},{"buffer":0,"byteLength":8280,"byteOffset":8280,"target":34962},{"buffer":0,"byteLength":5520,"byteOffset":16560,"target":34962},{"buffer":0,"byteLength":2316,"byteOffset":22080,"target":34963}],"samplers":[{"magFilter":9729,"minFilter":9987}],"buffers":[{"byteLength":24396,"uri":"penguin-felt-01-11-red-scarf.bin"}]}