{"asset":{"generator":"Khronos glTF Blender I/O v5.0.21","version":"2.0"},"scene":0,"scenes":[{"name":"Scene","nodes":[0]}],"nodes":[{"mesh":0,"name":"penguin-06-43-tea-samovar-penguin-doll"}],"materials":[{"doubleSided":true,"name":"tripo_node_88a70556-52da-4818-81c8-1082d26e4b4d_material","pbrMetallicRoughness":{"baseColorTexture":{"index":0},"metallicFactor":0,"roughnessFactor":0.5}}],"meshes":[{"name":"meshes[0].031","primitives":[{"attributes":{"POSITION":0,"NORMAL":1,"TEXCOORD_0":2},"indices":3,"material":0}]}],"textures":[{"sampler":0,"source":0}],"images":[{"mimeType":"image/jpeg","name":"matryoshka+doll+3d+model_basecolor","uri":"matryoshka-doll-3d-model_basecolor.jpg"}],"accessors":[{"bufferView":0,"componentType":5126,"count":368,"max":[0.09999999403953552,0.2513812184333801,0.07985635101795197],"min":[-0.09999999403953552,0,-0.09309391677379608],"type":"VEC3"},{"bufferView":1,"componentType":5126,"count":368,"type":"VEC3"},{"bufferView":2,"componentType":5126,"count":368,"type":"VEC2"},{"bufferView":3,"componentType":5123,"count":1740,"type":"SCALAR"}],"bufferViews":[{"buffer":0,"byteLength":4416,"byteOffset":0,"target":34962},{"buffer":0,"byteLength":4416,"byteOffset":4416,"target":34962},{"buffer":0,"byteLength":2944,"byteOffset":8832,"target":34962},{"buffer":0,"byteLength":3480,"byteOffset":11776,"target":34963}],"samplers":[{"magFilter":9729,"minFilter":9987}],"buffers":[{"byteLength":15256,"uri":"penguin-06-43-tea-samovar-penguin-doll.bin"}]}