{"asset":{"generator":"Khronos glTF Blender I/O v5.0.21","version":"2.0"},"scene":0,"scenes":[{"name":"Scene","nodes":[0]}],"nodes":[{"mesh":0,"name":"penguin-06-34-ice-white-penguin-doll"}],"materials":[{"doubleSided":true,"name":"tripo_node_88a70556-52da-4818-81c8-1082d26e4b4d_material","pbrMetallicRoughness":{"baseColorTexture":{"index":0},"metallicFactor":0,"roughnessFactor":0.5}}],"meshes":[{"name":"meshes[0].028","primitives":[{"attributes":{"POSITION":0,"NORMAL":1,"TEXCOORD_0":2},"indices":3,"material":0}]}],"textures":[{"sampler":0,"source":0}],"images":[{"mimeType":"image/jpeg","name":"matryoshka+doll+3d+model_basecolor","uri":"matryoshka-doll-3d-model_basecolor.jpg"}],"accessors":[{"bufferView":0,"componentType":5126,"count":364,"max":[0.10000000149011612,0.24945056438446045,0.07971428334712982],"min":[-0.10000000149011612,0,-0.09285714477300644],"type":"VEC3"},{"bufferView":1,"componentType":5126,"count":364,"type":"VEC3"},{"bufferView":2,"componentType":5126,"count":364,"type":"VEC2"},{"bufferView":3,"componentType":5123,"count":1752,"type":"SCALAR"}],"bufferViews":[{"buffer":0,"byteLength":4368,"byteOffset":0,"target":34962},{"buffer":0,"byteLength":4368,"byteOffset":4368,"target":34962},{"buffer":0,"byteLength":2912,"byteOffset":8736,"target":34962},{"buffer":0,"byteLength":3504,"byteOffset":11648,"target":34963}],"samplers":[{"magFilter":9729,"minFilter":9987}],"buffers":[{"byteLength":15152,"uri":"penguin-06-34-ice-white-penguin-doll.bin"}]}