{"asset":{"generator":"Khronos glTF Blender I/O v5.0.21","version":"2.0"},"scene":0,"scenes":[{"name":"Scene","nodes":[0]}],"nodes":[{"mesh":0,"name":"penguin-06-42-rooster-folk-penguin-doll"}],"materials":[{"doubleSided":true,"name":"tripo_node_88a70556-52da-4818-81c8-1082d26e4b4d_material","pbrMetallicRoughness":{"baseColorTexture":{"index":0},"metallicFactor":0,"roughnessFactor":0.5}}],"meshes":[{"name":"meshes[0].030","primitives":[{"attributes":{"POSITION":0,"NORMAL":1,"TEXCOORD_0":2},"indices":3,"material":0}]}],"textures":[{"sampler":0,"source":0}],"images":[{"mimeType":"image/jpeg","name":"matryoshka+doll+3d+model_basecolor","uri":"matryoshka-doll-3d-model_basecolor.jpg"}],"accessors":[{"bufferView":0,"componentType":5126,"count":394,"max":[0.10000000149011612,0.24808743596076965,0.07957377284765244],"min":[-0.10000000149011612,0,-0.09262295067310333],"type":"VEC3"},{"bufferView":1,"componentType":5126,"count":394,"type":"VEC3"},{"bufferView":2,"componentType":5126,"count":394,"type":"VEC2"},{"bufferView":3,"componentType":5123,"count":1884,"type":"SCALAR"}],"bufferViews":[{"buffer":0,"byteLength":4728,"byteOffset":0,"target":34962},{"buffer":0,"byteLength":4728,"byteOffset":4728,"target":34962},{"buffer":0,"byteLength":3152,"byteOffset":9456,"target":34962},{"buffer":0,"byteLength":3768,"byteOffset":12608,"target":34963}],"samplers":[{"magFilter":9729,"minFilter":9987}],"buffers":[{"byteLength":16376,"uri":"penguin-06-42-rooster-folk-penguin-doll.bin"}]}