{"asset":{"generator":"Khronos glTF Blender I/O v5.0.21","version":"2.0"},"scene":0,"scenes":[{"name":"Scene","nodes":[0]}],"nodes":[{"mesh":0,"name":"penguin-04-13-baby-blue-crochet-penguin"}],"materials":[{"doubleSided":true,"name":"tripo_node_61282b32-6a4b-47ca-a3f4-9130c302dead_material","pbrMetallicRoughness":{"baseColorTexture":{"index":0},"metallicFactor":0,"roughnessFactor":0.5}}],"meshes":[{"name":"meshes[0].019","primitives":[{"attributes":{"POSITION":0,"NORMAL":1,"TEXCOORD_0":2},"indices":3,"material":0}]}],"textures":[{"sampler":0,"source":0}],"images":[{"mimeType":"image/jpeg","name":"penguin+3d+model_basecolor","uri":"penguin-3d-model_basecolor.jpg"}],"accessors":[{"bufferView":0,"componentType":5126,"count":1082,"max":[0.10000000149011612,0.23391813039779663,0.0459064282476902],"min":[-0.10000000149011612,0,-0.10038012266159058],"type":"VEC3"},{"bufferView":1,"componentType":5126,"count":1082,"type":"VEC3"},{"bufferView":2,"componentType":5126,"count":1082,"type":"VEC2"},{"bufferView":3,"componentType":5123,"count":4392,"type":"SCALAR"}],"bufferViews":[{"buffer":0,"byteLength":12984,"byteOffset":0,"target":34962},{"buffer":0,"byteLength":12984,"byteOffset":12984,"target":34962},{"buffer":0,"byteLength":8656,"byteOffset":25968,"target":34962},{"buffer":0,"byteLength":8784,"byteOffset":34624,"target":34963}],"samplers":[{"magFilter":9729,"minFilter":9987}],"buffers":[{"byteLength":43408,"uri":"penguin-04-13-baby-blue-crochet-penguin.bin"}]}