{"asset":{"generator":"Khronos glTF Blender I/O v5.0.21","version":"2.0"},"scene":0,"scenes":[{"name":"Scene","nodes":[0]}],"nodes":[{"mesh":0,"name":"penguin-04-41-chunky-yarn-jumbo-crochet-penguin"}],"materials":[{"doubleSided":true,"name":"tripo_node_d6e6d5bc-435d-48e0-88e9-ceda9df73bf0_material","pbrMetallicRoughness":{"baseColorTexture":{"index":0},"metallicFactor":0,"roughnessFactor":0.5}},{"doubleSided":true,"name":"Crochet clean black safety eyes","pbrMetallicRoughness":{"baseColorFactor":[0.012000000104308128,0.008999999612569809,0.008999999612569809,1],"metallicFactor":0,"roughnessFactor":0.25}}],"meshes":[{"name":"meshes[0].029","primitives":[{"attributes":{"POSITION":0,"NORMAL":1,"TEXCOORD_0":2},"indices":3,"material":0},{"attributes":{"POSITION":4,"NORMAL":5,"TEXCOORD_0":6},"indices":7,"material":1}]}],"textures":[{"sampler":0,"source":0}],"images":[{"mimeType":"image/jpeg","name":"knitted+penguin+plush+3d+model_basecolor","uri":"knitted-penguin-plush-3d-model_basecolor.jpg"}],"accessors":[{"bufferView":0,"componentType":5126,"count":294,"max":[0.10000000149011612,0.20588235557079315,0.07239819318056107],"min":[-0.10000000149011612,0,-0.07239819318056107],"type":"VEC3"},{"bufferView":1,"componentType":5126,"count":294,"type":"VEC3"},{"bufferView":2,"componentType":5126,"count":294,"type":"VEC2"},{"bufferView":3,"componentType":5123,"count":1278,"type":"SCALAR"},{"bufferView":4,"componentType":5126,"count":230,"max":[0.03872549161314964,0.15843291580677032,0.04994714632630348],"min":[-0.03489583358168602,0.1412760466337204,0.04131628945469856],"type":"VEC3"},{"bufferView":5,"componentType":5126,"count":230,"type":"VEC3"},{"bufferView":6,"componentType":5126,"count":230,"type":"VEC2"},{"bufferView":7,"componentType":5123,"count":1008,"type":"SCALAR"}],"bufferViews":[{"buffer":0,"byteLength":3528,"byteOffset":0,"target":34962},{"buffer":0,"byteLength":3528,"byteOffset":3528,"target":34962},{"buffer":0,"byteLength":2352,"byteOffset":7056,"target":34962},{"buffer":0,"byteLength":2556,"byteOffset":9408,"target":34963},{"buffer":0,"byteLength":2760,"byteOffset":11964,"target":34962},{"buffer":0,"byteLength":2760,"byteOffset":14724,"target":34962},{"buffer":0,"byteLength":1840,"byteOffset":17484,"target":34962},{"buffer":0,"byteLength":2016,"byteOffset":19324,"target":34963}],"samplers":[{"magFilter":9729,"minFilter":9987}],"buffers":[{"byteLength":21340,"uri":"penguin-04-41-chunky-yarn-jumbo-crochet-penguin.bin"}]}