{"asset":{"generator":"Khronos glTF Blender I/O v5.0.21","version":"2.0"},"scene":0,"scenes":[{"name":"Scene","nodes":[0]}],"nodes":[{"mesh":0,"name":"penguin-04-32-blush-cheek-crochet-penguin"}],"materials":[{"doubleSided":true,"name":"tripo_node_d6e6d5bc-435d-48e0-88e9-ceda9df73bf0_material","pbrMetallicRoughness":{"baseColorTexture":{"index":0},"metallicFactor":0,"roughnessFactor":0.5}},{"doubleSided":true,"name":"Crochet clean black safety eyes","pbrMetallicRoughness":{"baseColorFactor":[0.012000000104308128,0.008999999612569809,0.008999999612569809,1],"metallicFactor":0,"roughnessFactor":0.25}}],"meshes":[{"name":"meshes[0].026","primitives":[{"attributes":{"POSITION":0,"NORMAL":1,"TEXCOORD_0":2},"indices":3,"material":0},{"attributes":{"POSITION":4,"NORMAL":5,"TEXCOORD_0":6},"indices":7,"material":1}]}],"textures":[{"sampler":0,"source":0}],"images":[{"mimeType":"image/jpeg","name":"knitted+penguin+plush+3d+model_basecolor","uri":"knitted-penguin-plush-3d-model_basecolor.jpg"}],"accessors":[{"bufferView":0,"componentType":5126,"count":322,"max":[0.10000000894069672,0.2134939730167389,0.07590361684560776],"min":[-0.10000000149011612,0,-0.07590361684560776],"type":"VEC3"},{"bufferView":1,"componentType":5126,"count":322,"type":"VEC3"},{"bufferView":2,"componentType":5126,"count":322,"type":"VEC2"},{"bufferView":3,"componentType":5123,"count":1278,"type":"SCALAR"},{"bufferView":4,"componentType":5126,"count":230,"max":[0.04015720263123512,0.1637938767671585,0.051070477813482285],"min":[-0.0431356281042099,0.14600272476673126,0.04219066724181175],"type":"VEC3"},{"bufferView":5,"componentType":5126,"count":230,"type":"VEC3"},{"bufferView":6,"componentType":5126,"count":230,"type":"VEC2"},{"bufferView":7,"componentType":5123,"count":1008,"type":"SCALAR"}],"bufferViews":[{"buffer":0,"byteLength":3864,"byteOffset":0,"target":34962},{"buffer":0,"byteLength":3864,"byteOffset":3864,"target":34962},{"buffer":0,"byteLength":2576,"byteOffset":7728,"target":34962},{"buffer":0,"byteLength":2556,"byteOffset":10304,"target":34963},{"buffer":0,"byteLength":2760,"byteOffset":12860,"target":34962},{"buffer":0,"byteLength":2760,"byteOffset":15620,"target":34962},{"buffer":0,"byteLength":1840,"byteOffset":18380,"target":34962},{"buffer":0,"byteLength":2016,"byteOffset":20220,"target":34963}],"samplers":[{"magFilter":9729,"minFilter":9987}],"buffers":[{"byteLength":22236,"uri":"penguin-04-32-blush-cheek-crochet-penguin.bin"}]}