{"asset":{"generator":"Khronos glTF Blender I/O v5.0.21","version":"2.0"},"scene":0,"scenes":[{"name":"Scene","nodes":[0]}],"nodes":[{"mesh":0,"name":"penguin-04-22-frog-hat-crochet-penguin"}],"materials":[{"doubleSided":true,"name":"tripo_node_61282b32-6a4b-47ca-a3f4-9130c302dead_material","pbrMetallicRoughness":{"baseColorTexture":{"index":0},"metallicFactor":0,"roughnessFactor":0.5}}],"meshes":[{"name":"meshes[0].022","primitives":[{"attributes":{"POSITION":0,"NORMAL":1,"TEXCOORD_0":2},"indices":3,"material":0}]}],"textures":[{"sampler":0,"source":0}],"images":[{"mimeType":"image/jpeg","name":"penguin+3d+model_basecolor","uri":"penguin-3d-model_basecolor.jpg"}],"accessors":[{"bufferView":0,"componentType":5126,"count":2604,"max":[0.10000000149011612,0.25280898809432983,0.04606741666793823],"min":[-0.10000000149011612,0,-0.08959018439054489],"type":"VEC3"},{"bufferView":1,"componentType":5126,"count":2604,"type":"VEC3"},{"bufferView":2,"componentType":5126,"count":2604,"type":"VEC2"},{"bufferView":3,"componentType":5123,"count":7290,"type":"SCALAR"}],"bufferViews":[{"buffer":0,"byteLength":31248,"byteOffset":0,"target":34962},{"buffer":0,"byteLength":31248,"byteOffset":31248,"target":34962},{"buffer":0,"byteLength":20832,"byteOffset":62496,"target":34962},{"buffer":0,"byteLength":14580,"byteOffset":83328,"target":34963}],"samplers":[{"magFilter":9729,"minFilter":9987}],"buffers":[{"byteLength":97908,"uri":"penguin-04-22-frog-hat-crochet-penguin.bin"}]}