{"asset":{"generator":"Khronos glTF Blender I/O v5.0.21","version":"2.0"},"scene":0,"scenes":[{"name":"Scene","nodes":[0]}],"nodes":[{"mesh":0,"name":"penguin-04-11-classic-black-white-crochet-penguin"}],"materials":[{"doubleSided":true,"name":"tripo_node_61282b32-6a4b-47ca-a3f4-9130c302dead_material","pbrMetallicRoughness":{"baseColorTexture":{"index":0},"metallicFactor":0,"roughnessFactor":0.5}}],"meshes":[{"name":"meshes[0].017","primitives":[{"attributes":{"POSITION":0,"NORMAL":1,"TEXCOORD_0":2},"indices":3,"material":0}]}],"textures":[{"sampler":0,"source":0}],"images":[{"mimeType":"image/jpeg","name":"penguin+3d+model_basecolor","uri":"penguin-3d-model_basecolor.jpg"}],"accessors":[{"bufferView":0,"componentType":5126,"count":1073,"max":[0.10000000149011612,0.2346041202545166,0.04574780538678169],"min":[-0.10000000149011612,0,-0.10077711194753647],"type":"VEC3"},{"bufferView":1,"componentType":5126,"count":1073,"type":"VEC3"},{"bufferView":2,"componentType":5126,"count":1073,"type":"VEC2"},{"bufferView":3,"componentType":5123,"count":4380,"type":"SCALAR"}],"bufferViews":[{"buffer":0,"byteLength":12876,"byteOffset":0,"target":34962},{"buffer":0,"byteLength":12876,"byteOffset":12876,"target":34962},{"buffer":0,"byteLength":8584,"byteOffset":25752,"target":34962},{"buffer":0,"byteLength":8760,"byteOffset":34336,"target":34963}],"samplers":[{"magFilter":9729,"minFilter":9987}],"buffers":[{"byteLength":43096,"uri":"penguin-04-11-classic-black-white-crochet-penguin.bin"}]}