{"asset":{"generator":"Khronos glTF Blender I/O v5.0.21","version":"2.0"},"scene":0,"scenes":[{"name":"Scene","nodes":[0]}],"nodes":[{"mesh":0,"name":"penguin-04-24-watermelon-crochet-penguin"}],"materials":[{"doubleSided":true,"name":"tripo_node_61282b32-6a4b-47ca-a3f4-9130c302dead_material","pbrMetallicRoughness":{"baseColorTexture":{"index":0},"metallicFactor":0,"roughnessFactor":0.5}}],"meshes":[{"name":"meshes[0].024","primitives":[{"attributes":{"POSITION":0,"NORMAL":1,"TEXCOORD_0":2},"indices":3,"material":0}]}],"textures":[{"sampler":0,"source":0}],"images":[{"mimeType":"image/jpeg","name":"penguin+3d+model_basecolor","uri":"penguin-3d-model_basecolor.jpg"}],"accessors":[{"bufferView":0,"componentType":5126,"count":1065,"max":[0.09999999403953552,0.23133902251720428,0.04444443807005882],"min":[-0.09999999403953552,0,-0.10032765567302704],"type":"VEC3"},{"bufferView":1,"componentType":5126,"count":1065,"type":"VEC3"},{"bufferView":2,"componentType":5126,"count":1065,"type":"VEC2"},{"bufferView":3,"componentType":5123,"count":4350,"type":"SCALAR"}],"bufferViews":[{"buffer":0,"byteLength":12780,"byteOffset":0,"target":34962},{"buffer":0,"byteLength":12780,"byteOffset":12780,"target":34962},{"buffer":0,"byteLength":8520,"byteOffset":25560,"target":34962},{"buffer":0,"byteLength":8700,"byteOffset":34080,"target":34963}],"samplers":[{"magFilter":9729,"minFilter":9987}],"buffers":[{"byteLength":42780,"uri":"penguin-04-24-watermelon-crochet-penguin.bin"}]}