{"asset":{"generator":"Khronos glTF Blender I/O v5.0.21","version":"2.0"},"scene":0,"scenes":[{"name":"Scene","nodes":[0]}],"nodes":[{"mesh":0,"name":"penguin-07-12-blue-hussar-nutcracker-penguin"}],"materials":[{"doubleSided":true,"name":"tripo_node_0645203c-f537-4269-a367-f3ff3a4b4b21_material","pbrMetallicRoughness":{"baseColorTexture":{"index":0},"metallicFactor":0,"roughnessFactor":0.5}}],"meshes":[{"name":"meshes[0].018","primitives":[{"attributes":{"POSITION":0,"NORMAL":1,"TEXCOORD_0":2},"indices":3,"material":0}]}],"textures":[{"sampler":0,"source":0}],"images":[{"mimeType":"image/jpeg","name":"penguin+character+3d+model_basecolor","uri":"penguin-character-3d-model_basecolor.jpg"}],"accessors":[{"bufferView":0,"componentType":5126,"count":1894,"max":[0.08860619366168976,0.29402655363082886,0.15000000596046448],"min":[-0.08860619366168976,0,-0.011946897953748703],"type":"VEC3"},{"bufferView":1,"componentType":5126,"count":1894,"type":"VEC3"},{"bufferView":2,"componentType":5126,"count":1894,"type":"VEC2"},{"bufferView":3,"componentType":5123,"count":3192,"type":"SCALAR"}],"bufferViews":[{"buffer":0,"byteLength":22728,"byteOffset":0,"target":34962},{"buffer":0,"byteLength":22728,"byteOffset":22728,"target":34962},{"buffer":0,"byteLength":15152,"byteOffset":45456,"target":34962},{"buffer":0,"byteLength":6384,"byteOffset":60608,"target":34963}],"samplers":[{"magFilter":9729,"minFilter":9987}],"buffers":[{"byteLength":66992,"uri":"penguin-07-12-blue-hussar-nutcracker-penguin.bin"}]}