{"asset":{"generator":"Khronos glTF Blender I/O v5.0.21","version":"2.0"},"scene":0,"scenes":[{"name":"Scene","nodes":[0]}],"nodes":[{"mesh":0,"name":"penguin-07-22-flag-bearer-nutcracker-penguin"}],"materials":[{"doubleSided":true,"name":"tripo_node_0645203c-f537-4269-a367-f3ff3a4b4b21_material","pbrMetallicRoughness":{"baseColorTexture":{"index":0},"metallicFactor":0,"roughnessFactor":0.5}}],"meshes":[{"name":"meshes[0].022","primitives":[{"attributes":{"POSITION":0,"NORMAL":1,"TEXCOORD_0":2},"indices":3,"material":0}]}],"textures":[{"sampler":0,"source":0}],"images":[{"mimeType":"image/jpeg","name":"penguin+character+3d+model_basecolor","uri":"penguin-character-3d-model_basecolor.jpg"}],"accessors":[{"bufferView":0,"componentType":5126,"count":1762,"max":[0.09999999403953552,0.17908847332000732,0.12117962539196014],"min":[-0.10000000149011612,0,-0.009651469998061657],"type":"VEC3"},{"bufferView":1,"componentType":5126,"count":1762,"type":"VEC3"},{"bufferView":2,"componentType":5126,"count":1762,"type":"VEC2"},{"bufferView":3,"componentType":5125,"count":3216,"type":"SCALAR","byteOffset":0}],"bufferViews":[{"buffer":0,"byteLength":21144,"byteOffset":0,"target":34962},{"buffer":0,"byteLength":21144,"byteOffset":21144,"target":34962},{"buffer":0,"byteLength":14096,"byteOffset":42288,"target":34962},{"buffer":0,"byteLength":12864,"byteOffset":62804,"target":34963}],"samplers":[{"magFilter":9729,"minFilter":9987}],"buffers":[{"byteLength":75668,"uri":"penguin-07-22-flag-bearer-nutcracker-penguin.bin"}]}