{"asset":{"generator":"Khronos glTF Blender I/O v5.0.21","version":"2.0"},"scene":0,"scenes":[{"name":"Scene","nodes":[0]}],"nodes":[{"mesh":0,"name":"penguin-09-23-drum-tin-penguin"}],"materials":[{"doubleSided":true,"name":"tripo_node_ada43597-97cd-46f4-8e99-fa440cb53c0d_material","pbrMetallicRoughness":{"baseColorTexture":{"index":0},"metallicFactor":0,"roughnessFactor":0.5}}],"meshes":[{"name":"meshes[0].021","primitives":[{"attributes":{"POSITION":0,"NORMAL":1,"TEXCOORD_0":2},"indices":3,"material":0}]}],"textures":[{"sampler":0,"source":0}],"images":[{"mimeType":"image/jpeg","name":"penguin+character+3d+model_basecolor","uri":"penguin-character-3d-model_basecolor.jpg"}],"accessors":[{"bufferView":0,"componentType":5126,"count":1972,"max":[0.07792969048023224,0.23437494039535522,0.15000000596046448],"min":[-0.07792969048023224,0,-0.030468756332993507],"type":"VEC3"},{"bufferView":1,"componentType":5126,"count":1972,"type":"VEC3"},{"bufferView":2,"componentType":5126,"count":1972,"type":"VEC2"},{"bufferView":3,"componentType":5123,"count":4770,"type":"SCALAR"}],"bufferViews":[{"buffer":0,"byteLength":23664,"byteOffset":0,"target":34962},{"buffer":0,"byteLength":23664,"byteOffset":23664,"target":34962},{"buffer":0,"byteLength":15776,"byteOffset":47328,"target":34962},{"buffer":0,"byteLength":9540,"byteOffset":63104,"target":34963}],"samplers":[{"magFilter":9729,"minFilter":9987}],"buffers":[{"byteLength":72644,"uri":"penguin-09-23-drum-tin-penguin.bin"}]}