{"asset":{"generator":"Khronos glTF Blender I/O v5.0.21","version":"2.0"},"scene":0,"scenes":[{"name":"Scene","nodes":[0]}],"nodes":[{"mesh":0,"name":"penguin-09-24-umbrella-tin-penguin"}],"materials":[{"doubleSided":true,"name":"tripo_node_ada43597-97cd-46f4-8e99-fa440cb53c0d_material","pbrMetallicRoughness":{"baseColorTexture":{"index":0},"metallicFactor":0,"roughnessFactor":0.5}}],"meshes":[{"name":"meshes[0].022","primitives":[{"attributes":{"POSITION":0,"NORMAL":1,"TEXCOORD_0":2},"indices":3,"material":0}]}],"textures":[{"sampler":0,"source":0}],"images":[{"mimeType":"image/jpeg","name":"penguin+character+3d+model_basecolor","uri":"penguin-character-3d-model_basecolor.jpg"}],"accessors":[{"bufferView":0,"componentType":5126,"count":48438,"type":"VEC3","min":[-0.10012078285217285,-2.535962266847491e-07,-0.039685141295194626],"max":[0.10000000149011612,0.2528967261314392,0.13370387256145477]},{"bufferView":1,"componentType":5126,"count":48438,"type":"VEC3","min":[-0.9999343156814575,-1.0,-0.9999849796295166],"max":[0.9999792575836182,1.0,1.0]},{"bufferView":2,"componentType":5126,"count":48438,"type":"VEC2"},{"bufferView":3,"componentType":5125,"count":48438,"type":"SCALAR"}],"bufferViews":[{"buffer":0,"byteOffset":0,"byteLength":581256},{"buffer":0,"byteOffset":581256,"byteLength":581256},{"buffer":0,"byteOffset":1162512,"byteLength":387504},{"buffer":0,"byteOffset":1550016,"byteLength":193752}],"samplers":[{"magFilter":9729,"minFilter":9987}],"buffers":[{"byteLength":1743768,"uri":"penguin-09-24-umbrella-tin-penguin.bin"}]}