{"asset":{"generator":"Khronos glTF Blender I/O v5.0.21","version":"2.0"},"scene":0,"scenes":[{"name":"Scene","nodes":[0]}],"nodes":[{"mesh":0,"name":"penguin-09-32-bicycle-tin-penguin.001"}],"materials":[{"doubleSided":true,"name":"Bicycle tin","pbrMetallicRoughness":{"baseColorTexture":{"index":0},"metallicFactor":0,"roughnessFactor":0.5}}],"meshes":[{"name":"meshes[0].002","primitives":[{"attributes":{"POSITION":0,"NORMAL":1,"TEXCOORD_0":2},"indices":3,"material":0}]}],"textures":[{"sampler":0,"source":0}],"images":[{"mimeType":"image/png","name":"bicycle_delit_baked","uri":"bicycle_delit_baked.png"}],"accessors":[{"bufferView":0,"componentType":5126,"count":2680,"max":[0.09964930266141891,0.18894897401332855,0.04441559687256813],"min":[-0.09997875243425369,0.0001591792970430106,-0.04423937946557999],"type":"VEC3"},{"bufferView":1,"componentType":5126,"count":2680,"type":"VEC3"},{"bufferView":2,"componentType":5126,"count":2680,"type":"VEC2"},{"bufferView":3,"componentType":5123,"count":6000,"type":"SCALAR"}],"bufferViews":[{"buffer":0,"byteLength":32160,"byteOffset":0,"target":34962},{"buffer":0,"byteLength":32160,"byteOffset":32160,"target":34962},{"buffer":0,"byteLength":21440,"byteOffset":64320,"target":34962},{"buffer":0,"byteLength":12000,"byteOffset":85760,"target":34963}],"samplers":[{"magFilter":9729,"minFilter":9987}],"buffers":[{"byteLength":97760,"uri":"penguin-09-32-bicycle-tin-penguin.bin"}]}