{"asset":{"generator":"Khronos glTF Blender I/O v5.0.21","version":"2.0"},"scene":0,"scenes":[{"name":"Scene","nodes":[0]}],"nodes":[{"mesh":0,"name":"penguin-09-11-red-tin-wind-up-penguin"}],"materials":[{"doubleSided":true,"name":"tripo_node_ada43597-97cd-46f4-8e99-fa440cb53c0d_material","pbrMetallicRoughness":{"baseColorTexture":{"index":0},"metallicFactor":0,"roughnessFactor":0.5}}],"meshes":[{"name":"meshes[0].015","primitives":[{"attributes":{"POSITION":0,"NORMAL":1,"TEXCOORD_0":2},"indices":3,"material":0}]}],"textures":[{"sampler":0,"source":0}],"images":[{"mimeType":"image/jpeg","name":"penguin+character+3d+model_basecolor","uri":"penguin-character-3d-model_basecolor.jpg"}],"accessors":[{"bufferView":0,"componentType":5126,"count":2851,"max":[0.0995604395866394,0.2591208815574646,0.14999999105930328],"min":[-0.0995604395866394,0,-0.023901093751192093],"type":"VEC3"},{"bufferView":1,"componentType":5126,"count":2851,"type":"VEC3"},{"bufferView":2,"componentType":5126,"count":2851,"type":"VEC2"},{"bufferView":3,"componentType":5123,"count":7296,"type":"SCALAR"}],"bufferViews":[{"buffer":0,"byteLength":34212,"byteOffset":0,"target":34962},{"buffer":0,"byteLength":34212,"byteOffset":34212,"target":34962},{"buffer":0,"byteLength":22808,"byteOffset":68424,"target":34962},{"buffer":0,"byteLength":14592,"byteOffset":91232,"target":34963}],"samplers":[{"magFilter":9729,"minFilter":9987}],"buffers":[{"byteLength":105824,"uri":"penguin-09-11-red-tin-wind-up-penguin.bin"}]}