{"asset":{"generator":"Khronos glTF Blender I/O v5.0.21","version":"2.0"},"scene":0,"scenes":[{"name":"Scene","nodes":[0]}],"nodes":[{"mesh":0,"name":"penguin-01-23-candy-cane-stripe"}],"materials":[{"doubleSided":true,"name":"tripo_node_84a55d80-eddb-424b-b2ae-e969e9b1fe3f_material","pbrMetallicRoughness":{"baseColorTexture":{"index":0},"metallicFactor":0,"roughnessFactor":0.5}}],"meshes":[{"name":"meshes[0].023","primitives":[{"attributes":{"POSITION":0,"NORMAL":1,"TEXCOORD_0":2},"indices":3,"material":0}]}],"textures":[{"sampler":0,"source":0}],"images":[{"mimeType":"image/jpeg","name":"decorative+penguin+figurines+3d+model_basecolor","uri":"decorative-penguin-figurines-3d-model_basecolor.jpg"}],"accessors":[{"bufferView":0,"componentType":5126,"count":1444,"max":[0.10000000149011612,0.2276189923286438,0.1133333295583725],"min":[-0.10000000894069672,0,-0.1133333295583725],"type":"VEC3"},{"bufferView":1,"componentType":5126,"count":1444,"type":"VEC3"},{"bufferView":2,"componentType":5126,"count":1444,"type":"VEC2"},{"bufferView":3,"componentType":5123,"count":4254,"type":"SCALAR"}],"bufferViews":[{"buffer":0,"byteLength":17328,"byteOffset":0,"target":34962},{"buffer":0,"byteLength":17328,"byteOffset":17328,"target":34962},{"buffer":0,"byteLength":11552,"byteOffset":34656,"target":34962},{"buffer":0,"byteLength":8508,"byteOffset":46208,"target":34963}],"samplers":[{"magFilter":9729,"minFilter":9987}],"buffers":[{"byteLength":54716,"uri":"penguin-01-23-candy-cane-stripe.bin"}]}