{"asset":{"generator":"Khronos glTF Blender I/O v5.0.21","version":"2.0"},"scene":0,"scenes":[{"name":"Scene","nodes":[0]}],"nodes":[{"mesh":0,"name":"penguin-porcelain-01-41-tiny-crown"}],"materials":[{"doubleSided":true,"name":"tripo_mat_a7a2445a","pbrMetallicRoughness":{"baseColorTexture":{"index":0},"metallicFactor":0,"roughnessFactor":0.8999999761581421}}],"meshes":[{"name":"tripo_mesh_a7a2445a.029","primitives":[{"attributes":{"POSITION":0,"NORMAL":1,"TEXCOORD_0":2},"indices":3,"material":0}]}],"textures":[{"sampler":0,"source":0}],"images":[{"mimeType":"image/jpeg","name":"cute_penguin_doll_3d_model_basecolor","uri":"cute_penguin_doll_3d_model_basecolor.jpg"}],"accessors":[{"bufferView":0,"componentType":5126,"count":3238,"max":[0.10000001639127731,0.24073104560375214,0.1373368203639984],"min":[-0.09999998658895493,0,-0.1373368203639984],"type":"VEC3"},{"bufferView":1,"componentType":5126,"count":3238,"type":"VEC3"},{"bufferView":2,"componentType":5126,"count":3238,"type":"VEC2"},{"bufferView":3,"componentType":5123,"count":5136,"type":"SCALAR"}],"bufferViews":[{"buffer":0,"byteLength":38856,"byteOffset":0,"target":34962},{"buffer":0,"byteLength":38856,"byteOffset":38856,"target":34962},{"buffer":0,"byteLength":25904,"byteOffset":77712,"target":34962},{"buffer":0,"byteLength":10272,"byteOffset":103616,"target":34963}],"samplers":[{"magFilter":9729,"minFilter":9987}],"buffers":[{"byteLength":113888,"uri":"penguin-porcelain-01-41-tiny-crown.bin"}]}