{"asset":{"generator":"Khronos glTF Blender I/O v5.0.21","version":"2.0"},"scene":0,"scenes":[{"name":"Scene","nodes":[0]}],"nodes":[{"mesh":0,"name":"penguin-felt-01-41-sleepy-closed-eye"}],"materials":[{"doubleSided":true,"name":"tripo_mat_2b4dbb2f","pbrMetallicRoughness":{"baseColorTexture":{"index":0},"metallicFactor":0,"roughnessFactor":0.8999999761581421}}],"meshes":[{"name":"tripo_mesh_2b4dbb2f.029","primitives":[{"attributes":{"POSITION":0,"NORMAL":1,"TEXCOORD_0":2},"indices":3,"material":0}]}],"textures":[{"sampler":0,"source":0}],"images":[{"mimeType":"image/jpeg","name":"penguin_plush_3d_model_basecolor","uri":"penguin_plush_3d_model_basecolor.jpg"}],"accessors":[{"bufferView":0,"componentType":5126,"count":370,"max":[0.10000000149011612,0.2079625278711319,0.0777517631649971],"min":[-0.10000000149011612,0,-0.0777517706155777],"type":"VEC3"},{"bufferView":1,"componentType":5126,"count":370,"type":"VEC3"},{"bufferView":2,"componentType":5126,"count":370,"type":"VEC2"},{"bufferView":3,"componentType":5123,"count":750,"type":"SCALAR"}],"bufferViews":[{"buffer":0,"byteLength":4440,"byteOffset":0,"target":34962},{"buffer":0,"byteLength":4440,"byteOffset":4440,"target":34962},{"buffer":0,"byteLength":2960,"byteOffset":8880,"target":34962},{"buffer":0,"byteLength":1500,"byteOffset":11840,"target":34963}],"samplers":[{"magFilter":9729,"minFilter":9987}],"buffers":[{"byteLength":13340,"uri":"penguin-felt-01-41-sleepy-closed-eye.bin"}]}