{"asset":{"generator":"Khronos glTF Blender I/O v5.0.21","version":"2.0"},"scene":0,"scenes":[{"name":"Scene","nodes":[0]}],"nodes":[{"mesh":0,"name":"penguin-felt-01-21-green-explorer-hat"}],"materials":[{"doubleSided":true,"name":"tripo_mat_2b4dbb2f","pbrMetallicRoughness":{"baseColorTexture":{"index":0},"metallicFactor":0,"roughnessFactor":0.8999999761581421}}],"meshes":[{"name":"tripo_mesh_2b4dbb2f.021","primitives":[{"attributes":{"POSITION":0,"NORMAL":1,"TEXCOORD_0":2},"indices":3,"material":0}]}],"textures":[{"sampler":0,"source":0}],"images":[{"mimeType":"image/jpeg","name":"penguin_plush_3d_model_basecolor","uri":"penguin_plush_3d_model_basecolor.jpg"}],"accessors":[{"bufferView":0,"componentType":5126,"count":503,"max":[0.10000000149011612,0.23145540058612823,0.0953051820397377],"min":[-0.10000000149011612,0,-0.0953051820397377],"type":"VEC3"},{"bufferView":1,"componentType":5126,"count":503,"type":"VEC3"},{"bufferView":2,"componentType":5126,"count":503,"type":"VEC2"},{"bufferView":3,"componentType":5123,"count":1032,"type":"SCALAR"}],"bufferViews":[{"buffer":0,"byteLength":6036,"byteOffset":0,"target":34962},{"buffer":0,"byteLength":6036,"byteOffset":6036,"target":34962},{"buffer":0,"byteLength":4024,"byteOffset":12072,"target":34962},{"buffer":0,"byteLength":2064,"byteOffset":16096,"target":34963}],"samplers":[{"magFilter":9729,"minFilter":9987}],"buffers":[{"byteLength":18160,"uri":"penguin-felt-01-21-green-explorer-hat.bin"}]}