{"asset":{"generator":"Khronos glTF Blender I/O v5.0.21","version":"2.0"},"scene":0,"scenes":[{"name":"Scene","nodes":[0]}],"nodes":[{"mesh":0,"name":"penguin-05-11-classic-tuxedo-vinyl-penguin"}],"materials":[{"doubleSided":true,"name":"tripo_node_51d74303-a4c9-4aa5-b630-9bd78269a3f1_material","pbrMetallicRoughness":{"baseColorTexture":{"index":0},"metallicFactor":0,"roughnessFactor":0.5}}],"meshes":[{"name":"meshes[0].017","primitives":[{"attributes":{"POSITION":0,"NORMAL":1,"TEXCOORD_0":2},"indices":3,"material":0}]}],"textures":[{"sampler":0,"source":0}],"images":[{"mimeType":"image/jpeg","name":"cute+animal+figures+3d+model_basecolor","uri":"cute-animal-figures-3d-model_basecolor.jpg"}],"accessors":[{"bufferView":0,"componentType":5126,"count":1175,"max":[0.09999999403953552,0.24540814757347107,0.07448979467153549],"min":[-0.09999999403953552,0,-0.07448979467153549],"type":"VEC3"},{"bufferView":1,"componentType":5126,"count":1175,"type":"VEC3"},{"bufferView":2,"componentType":5126,"count":1175,"type":"VEC2"},{"bufferView":3,"componentType":5123,"count":2904,"type":"SCALAR"}],"bufferViews":[{"buffer":0,"byteLength":14100,"byteOffset":0,"target":34962},{"buffer":0,"byteLength":14100,"byteOffset":14100,"target":34962},{"buffer":0,"byteLength":9400,"byteOffset":28200,"target":34962},{"buffer":0,"byteLength":5808,"byteOffset":37600,"target":34963}],"samplers":[{"magFilter":9729,"minFilter":9987}],"buffers":[{"byteLength":43408,"uri":"penguin-05-11-classic-tuxedo-vinyl-penguin.bin"}]}