{"asset":{"generator":"Khronos glTF Blender I/O v5.0.21","version":"2.0"},"scene":0,"scenes":[{"name":"Scene","nodes":[0]}],"nodes":[{"mesh":0,"name":"penguin-08-14-crimson-obi-kokeshi-penguin"}],"materials":[{"doubleSided":true,"name":"tripo_node_42f6fec1-883f-41b7-9ad8-6dff266d11ad_material","pbrMetallicRoughness":{"baseColorTexture":{"index":0},"metallicFactor":0,"roughnessFactor":0.5}}],"meshes":[{"name":"meshes[0].020","primitives":[{"attributes":{"POSITION":0,"NORMAL":1,"TEXCOORD_0":2},"indices":3,"material":0}]}],"textures":[{"sampler":0,"source":0}],"images":[{"mimeType":"image/jpeg","name":"cute+penguin+character+3d+model_basecolor","uri":"cute-penguin-character-3d-model_basecolor.jpg"}],"accessors":[{"bufferView":0,"componentType":5126,"count":374,"max":[0.10000000149011612,0.2689654231071472,0.09686516970396042],"min":[-0.10000000149011612,0,-0.09686516970396042],"type":"VEC3"},{"bufferView":1,"componentType":5126,"count":374,"type":"VEC3"},{"bufferView":2,"componentType":5126,"count":374,"type":"VEC2"},{"bufferView":3,"componentType":5123,"count":1872,"type":"SCALAR"}],"bufferViews":[{"buffer":0,"byteLength":4488,"byteOffset":0,"target":34962},{"buffer":0,"byteLength":4488,"byteOffset":4488,"target":34962},{"buffer":0,"byteLength":2992,"byteOffset":8976,"target":34962},{"buffer":0,"byteLength":3744,"byteOffset":11968,"target":34963}],"samplers":[{"magFilter":9729,"minFilter":9987}],"buffers":[{"byteLength":15712,"uri":"penguin-08-14-crimson-obi-kokeshi-penguin.bin"}]}