{"asset":{"generator":"Khronos glTF Blender I/O v5.0.21","version":"2.0"},"scene":0,"scenes":[{"name":"Scene","nodes":[0]}],"nodes":[{"mesh":0,"name":"penguin-08-41-child-small-kokeshi-penguin"}],"materials":[{"doubleSided":true,"name":"tripo_node_42f6fec1-883f-41b7-9ad8-6dff266d11ad_material","pbrMetallicRoughness":{"baseColorTexture":{"index":0},"metallicFactor":0,"roughnessFactor":0.5}}],"meshes":[{"name":"meshes[0].029","primitives":[{"attributes":{"POSITION":0,"NORMAL":1,"TEXCOORD_0":2},"indices":3,"material":0}]}],"textures":[{"sampler":0,"source":0}],"images":[{"mimeType":"image/jpeg","name":"cute+penguin+character+3d+model_basecolor","uri":"cute-penguin-character-3d-model_basecolor.jpg"}],"accessors":[{"bufferView":0,"componentType":5126,"count":448,"max":[0.09999999403953552,0.2537878751754761,0.08787878602743149],"min":[-0.09999999403953552,0,-0.08787878602743149],"type":"VEC3"},{"bufferView":1,"componentType":5126,"count":448,"type":"VEC3"},{"bufferView":2,"componentType":5126,"count":448,"type":"VEC2"},{"bufferView":3,"componentType":5123,"count":2094,"type":"SCALAR"}],"bufferViews":[{"buffer":0,"byteLength":5376,"byteOffset":0,"target":34962},{"buffer":0,"byteLength":5376,"byteOffset":5376,"target":34962},{"buffer":0,"byteLength":3584,"byteOffset":10752,"target":34962},{"buffer":0,"byteLength":4188,"byteOffset":14336,"target":34963}],"samplers":[{"magFilter":9729,"minFilter":9987}],"buffers":[{"byteLength":18524,"uri":"penguin-08-41-child-small-kokeshi-penguin.bin"}]}