{"asset":{"generator":"Khronos glTF Blender I/O v5.0.21","version":"2.0"},"scene":0,"scenes":[{"name":"Scene","nodes":[0]}],"nodes":[{"mesh":0,"name":"penguin-08-23-snow-dot-kokeshi-penguin"}],"materials":[{"doubleSided":true,"name":"tripo_node_42f6fec1-883f-41b7-9ad8-6dff266d11ad_material","pbrMetallicRoughness":{"baseColorTexture":{"index":0},"metallicFactor":0,"roughnessFactor":0.5}}],"meshes":[{"name":"meshes[0].023","primitives":[{"attributes":{"POSITION":0,"NORMAL":1,"TEXCOORD_0":2},"indices":3,"material":0}]}],"textures":[{"sampler":0,"source":0}],"images":[{"mimeType":"image/jpeg","name":"cute+penguin+character+3d+model_basecolor","uri":"cute-penguin-character-3d-model_basecolor.jpg"}],"accessors":[{"bufferView":0,"componentType":5126,"count":389,"max":[0.10000000149011612,0.2732484042644501,0.09872611612081528],"min":[-0.10000000149011612,0,-0.09872611612081528],"type":"VEC3"},{"bufferView":1,"componentType":5126,"count":389,"type":"VEC3"},{"bufferView":2,"componentType":5126,"count":389,"type":"VEC2"},{"bufferView":3,"componentType":5123,"count":1872,"type":"SCALAR"}],"bufferViews":[{"buffer":0,"byteLength":4668,"byteOffset":0,"target":34962},{"buffer":0,"byteLength":4668,"byteOffset":4668,"target":34962},{"buffer":0,"byteLength":3112,"byteOffset":9336,"target":34962},{"buffer":0,"byteLength":3744,"byteOffset":12448,"target":34963}],"samplers":[{"magFilter":9729,"minFilter":9987}],"buffers":[{"byteLength":16192,"uri":"penguin-08-23-snow-dot-kokeshi-penguin.bin"}]}