{"asset":{"generator":"Khronos glTF Blender I/O v5.0.21","version":"2.0"},"scene":0,"scenes":[{"name":"Scene","nodes":[0]}],"nodes":[{"mesh":0,"name":"penguin-09-44-star-spangled-tin-penguin"}],"materials":[{"doubleSided":true,"name":"tripo_node_ada43597-97cd-46f4-8e99-fa440cb53c0d_material","pbrMetallicRoughness":{"baseColorTexture":{"index":0},"metallicFactor":0,"roughnessFactor":0.5}}],"meshes":[{"name":"meshes[0].028","primitives":[{"attributes":{"POSITION":0,"NORMAL":1,"TEXCOORD_0":2},"indices":3,"material":0}]}],"textures":[{"sampler":0,"source":0}],"images":[{"mimeType":"image/jpeg","name":"penguin+character+3d+model_basecolor","uri":"penguin-character-3d-model_basecolor.jpg"}],"accessors":[{"bufferView":0,"componentType":5126,"count":1422,"max":[0.09923076629638672,0.26505494117736816,0.14999999105930328],"min":[-0.09923076629638672,0,-0.023901093751192093],"type":"VEC3"},{"bufferView":1,"componentType":5126,"count":1422,"type":"VEC3"},{"bufferView":2,"componentType":5126,"count":1422,"type":"VEC2"},{"bufferView":3,"componentType":5123,"count":3546,"type":"SCALAR"}],"bufferViews":[{"buffer":0,"byteLength":17064,"byteOffset":0,"target":34962},{"buffer":0,"byteLength":17064,"byteOffset":17064,"target":34962},{"buffer":0,"byteLength":11376,"byteOffset":34128,"target":34962},{"buffer":0,"byteLength":7092,"byteOffset":45504,"target":34963}],"samplers":[{"magFilter":9729,"minFilter":9987}],"buffers":[{"byteLength":52596,"uri":"penguin-09-44-star-spangled-tin-penguin.bin"}]}