{"asset":{"generator":"Khronos glTF Blender I/O v5.0.21","version":"2.0"},"scene":0,"scenes":[{"name":"Scene","nodes":[0]}],"nodes":[{"mesh":0,"name":"penguin-09-42-chrome-tin-penguin"}],"materials":[{"doubleSided":true,"name":"tripo_node_ada43597-97cd-46f4-8e99-fa440cb53c0d_material","pbrMetallicRoughness":{"baseColorTexture":{"index":0},"metallicFactor":0,"roughnessFactor":0.5}}],"meshes":[{"name":"meshes[0].026","primitives":[{"attributes":{"POSITION":0,"NORMAL":1,"TEXCOORD_0":2},"indices":3,"material":0}]}],"textures":[{"sampler":0,"source":0}],"images":[{"mimeType":"image/jpeg","name":"penguin+character+3d+model_basecolor","uri":"penguin-character-3d-model_basecolor.jpg"}],"accessors":[{"bufferView":0,"componentType":5126,"count":1430,"max":[0.09551147371530533,0.25240084528923035,0.15000000596046448],"min":[-0.09551148861646652,0,-0.01531314104795456],"type":"VEC3"},{"bufferView":1,"componentType":5126,"count":1430,"type":"VEC3"},{"bufferView":2,"componentType":5126,"count":1430,"type":"VEC2"},{"bufferView":3,"componentType":5123,"count":3534,"type":"SCALAR"}],"bufferViews":[{"buffer":0,"byteLength":17160,"byteOffset":0,"target":34962},{"buffer":0,"byteLength":17160,"byteOffset":17160,"target":34962},{"buffer":0,"byteLength":11440,"byteOffset":34320,"target":34962},{"buffer":0,"byteLength":7068,"byteOffset":45760,"target":34963}],"samplers":[{"magFilter":9729,"minFilter":9987}],"buffers":[{"byteLength":52828,"uri":"penguin-09-42-chrome-tin-penguin.bin"}]}