{"asset":{"generator":"Khronos glTF Blender I/O v5.0.21","version":"2.0"},"scene":0,"scenes":[{"name":"Scene","nodes":[0]}],"nodes":[{"mesh":0,"name":"penguin-09-31-rocket-pack-tin-penguin"}],"materials":[{"doubleSided":true,"name":"tripo_node_b2d4eb83-9eee-4f9d-9b07-fe9796deebe4_material","pbrMetallicRoughness":{"baseColorTexture":{"index":0},"metallicFactor":0,"roughnessFactor":0.5}}],"meshes":[{"name":"meshes[0].001","primitives":[{"attributes":{"POSITION":0,"NORMAL":1,"TEXCOORD_0":2},"indices":3,"material":0}]}],"textures":[{"sampler":0,"source":0}],"images":[{"mimeType":"image/jpeg","name":"penguin-09-31-rocket-pack-tin-penguin_penguin+toy+3d+model_basecolor","uri":"penguin-09-31-rocket-pack-tin-penguin_penguin-toy-3d-model_basecolor.jpg"}],"accessors":[{"bufferView":0,"componentType":5126,"count":1990,"max":[0.09945064783096313,0.20828662812709808,0.08687552064657211],"min":[-0.09966687113046646,-1.3895422853238415e-05,-0.08624272048473358],"type":"VEC3"},{"bufferView":1,"componentType":5126,"count":1990,"type":"VEC3"},{"bufferView":2,"componentType":5126,"count":1990,"type":"VEC2"},{"bufferView":3,"componentType":5123,"count":6000,"type":"SCALAR"}],"bufferViews":[{"buffer":0,"byteLength":23880,"byteOffset":0,"target":34962},{"buffer":0,"byteLength":23880,"byteOffset":23880,"target":34962},{"buffer":0,"byteLength":15920,"byteOffset":47760,"target":34962},{"buffer":0,"byteLength":12000,"byteOffset":63680,"target":34963}],"samplers":[{"magFilter":9729,"minFilter":9987}],"buffers":[{"byteLength":75680,"uri":"penguin-09-31-rocket-pack-tin-penguin.bin"}]}