{"asset":{"generator":"Khronos glTF Blender I/O v5.0.21","version":"2.0"},"scene":0,"scenes":[{"name":"Scene","nodes":[0]}],"nodes":[{"mesh":0,"name":"penguin-05-34-candy-ring-vinyl-penguin"}],"materials":[{"doubleSided":true,"name":"tripo_node_51d74303-a4c9-4aa5-b630-9bd78269a3f1_material","pbrMetallicRoughness":{"baseColorTexture":{"index":0},"metallicFactor":0,"roughnessFactor":0.5}}],"meshes":[{"name":"meshes[0].028","primitives":[{"attributes":{"POSITION":0,"NORMAL":1,"TEXCOORD_0":2},"indices":3,"material":0}]}],"textures":[{"sampler":0,"source":0}],"images":[{"mimeType":"image/jpeg","name":"cute+animal+figures+3d+model_basecolor","uri":"cute-animal-figures-3d-model_basecolor.jpg"}],"accessors":[{"bufferView":0,"componentType":5126,"count":3804,"max":[0.09999998658895493,0.25051549077033997,0.08298970758914948],"min":[-0.10000001639127731,0,-0.08298970758914948],"type":"VEC3"},{"bufferView":1,"componentType":5126,"count":3804,"type":"VEC3"},{"bufferView":2,"componentType":5126,"count":3804,"type":"VEC2"},{"bufferView":3,"componentType":5123,"count":9384,"type":"SCALAR"}],"bufferViews":[{"buffer":0,"byteLength":45648,"byteOffset":0,"target":34962},{"buffer":0,"byteLength":45648,"byteOffset":45648,"target":34962},{"buffer":0,"byteLength":30432,"byteOffset":91296,"target":34962},{"buffer":0,"byteLength":18768,"byteOffset":121728,"target":34963}],"samplers":[{"magFilter":9729,"minFilter":9987}],"buffers":[{"byteLength":140496,"uri":"penguin-05-34-candy-ring-vinyl-penguin.bin"}]}