{"asset":{"generator":"Khronos glTF Blender I/O v5.0.21","version":"2.0"},"scene":0,"scenes":[{"name":"Scene","nodes":[0]}],"nodes":[{"mesh":0,"name":"penguin-05-21-heart-hands-vinyl-penguin"}],"materials":[{"doubleSided":true,"name":"tripo_node_51d74303-a4c9-4aa5-b630-9bd78269a3f1_material","pbrMetallicRoughness":{"baseColorTexture":{"index":0},"metallicFactor":0,"roughnessFactor":0.5}}],"meshes":[{"name":"meshes[0].021","primitives":[{"attributes":{"POSITION":0,"NORMAL":1,"TEXCOORD_0":2},"indices":3,"material":0}]}],"textures":[{"sampler":0,"source":0}],"images":[{"mimeType":"image/jpeg","name":"cute+animal+figures+3d+model_basecolor","uri":"cute-animal-figures-3d-model_basecolor.jpg"}],"accessors":[{"bufferView":0,"componentType":5126,"count":3604,"max":[0.10000000149011612,0.3402135372161865,0.10427046567201614],"min":[-0.10000000149011612,0,-0.10427046567201614],"type":"VEC3"},{"bufferView":1,"componentType":5126,"count":3604,"type":"VEC3"},{"bufferView":2,"componentType":5126,"count":3604,"type":"VEC2"},{"bufferView":3,"componentType":5123,"count":9708,"type":"SCALAR"}],"bufferViews":[{"buffer":0,"byteLength":43248,"byteOffset":0,"target":34962},{"buffer":0,"byteLength":43248,"byteOffset":43248,"target":34962},{"buffer":0,"byteLength":28832,"byteOffset":86496,"target":34962},{"buffer":0,"byteLength":19416,"byteOffset":115328,"target":34963}],"samplers":[{"magFilter":9729,"minFilter":9987}],"buffers":[{"byteLength":134744,"uri":"penguin-05-21-heart-hands-vinyl-penguin.bin"}]}