{"asset":{"generator":"Khronos glTF Blender I/O v5.0.21","version":"2.0"},"scene":0,"scenes":[{"name":"Scene","nodes":[0]}],"nodes":[{"mesh":0,"name":"penguin-05-41-sparkle-clear-vinyl-penguin"}],"materials":[{"doubleSided":true,"name":"tripo_node_51d74303-a4c9-4aa5-b630-9bd78269a3f1_material","pbrMetallicRoughness":{"baseColorTexture":{"index":0},"metallicFactor":0,"roughnessFactor":0.5}}],"meshes":[{"name":"meshes[0].029","primitives":[{"attributes":{"POSITION":0,"NORMAL":1,"TEXCOORD_0":2},"indices":3,"material":0}]}],"textures":[{"sampler":0,"source":0}],"images":[{"mimeType":"image/jpeg","name":"cute+animal+figures+3d+model_basecolor","uri":"cute-animal-figures-3d-model_basecolor.jpg"}],"accessors":[{"bufferView":0,"componentType":5126,"count":2442,"max":[0.10000000149011612,0.2455243021249771,0.07442454993724823],"min":[-0.10000000149011612,0,-0.07442454993724823],"type":"VEC3"},{"bufferView":1,"componentType":5126,"count":2442,"type":"VEC3"},{"bufferView":2,"componentType":5126,"count":2442,"type":"VEC2"},{"bufferView":3,"componentType":5123,"count":5976,"type":"SCALAR"}],"bufferViews":[{"buffer":0,"byteLength":29304,"byteOffset":0,"target":34962},{"buffer":0,"byteLength":29304,"byteOffset":29304,"target":34962},{"buffer":0,"byteLength":19536,"byteOffset":58608,"target":34962},{"buffer":0,"byteLength":11952,"byteOffset":78144,"target":34963}],"samplers":[{"magFilter":9729,"minFilter":9987}],"buffers":[{"byteLength":90096,"uri":"penguin-05-41-sparkle-clear-vinyl-penguin.bin"}]}