{"asset":{"generator":"Khronos glTF Blender I/O v5.0.21","version":"2.0"},"scene":0,"scenes":[{"name":"Scene","nodes":[0]}],"nodes":[{"mesh":0,"name":"penguin-10-23-donut-ring-clay-penguin"}],"materials":[{"doubleSided":true,"name":"tripo_node_b87188a9-cad2-4ac0-8fd5-882b410daa64_material","pbrMetallicRoughness":{"baseColorTexture":{"index":0},"metallicFactor":0,"roughnessFactor":0.5}}],"meshes":[{"name":"meshes[0].023","primitives":[{"attributes":{"POSITION":0,"NORMAL":1,"TEXCOORD_0":2},"indices":3,"material":0}]}],"textures":[{"sampler":0,"source":0}],"images":[{"mimeType":"image/jpeg","name":"clay+penguin+3d+model_basecolor","uri":"clay-penguin-3d-model_basecolor.jpg"}],"accessors":[{"bufferView":0,"componentType":5126,"count":334,"max":[0.10000000149011612,0.19037967920303345,0.09797468781471252],"min":[-0.10000000894069672,0,-0.09797468781471252],"type":"VEC3"},{"bufferView":1,"componentType":5126,"count":334,"type":"VEC3"},{"bufferView":2,"componentType":5126,"count":334,"type":"VEC2"},{"bufferView":3,"componentType":5123,"count":1494,"type":"SCALAR"}],"bufferViews":[{"buffer":0,"byteLength":4008,"byteOffset":0,"target":34962},{"buffer":0,"byteLength":4008,"byteOffset":4008,"target":34962},{"buffer":0,"byteLength":2672,"byteOffset":8016,"target":34962},{"buffer":0,"byteLength":2988,"byteOffset":10688,"target":34963}],"samplers":[{"magFilter":9729,"minFilter":9987}],"buffers":[{"byteLength":13676,"uri":"penguin-10-23-donut-ring-clay-penguin.bin"}]}