{"asset":{"generator":"Khronos glTF Blender I/O v5.0.21","version":"2.0"},"scene":0,"scenes":[{"name":"Scene","nodes":[0]}],"nodes":[{"mesh":0,"name":"penguin-01-43-snowflake"}],"materials":[{"doubleSided":true,"name":"tripo_node_84a55d80-eddb-424b-b2ae-e969e9b1fe3f_material","pbrMetallicRoughness":{"baseColorTexture":{"index":0},"metallicFactor":0,"roughnessFactor":0.5}}],"meshes":[{"name":"meshes[0].031","primitives":[{"attributes":{"POSITION":0,"NORMAL":1,"TEXCOORD_0":2},"indices":3,"material":0}]}],"textures":[{"sampler":0,"source":0}],"images":[{"mimeType":"image/jpeg","name":"decorative+penguin+figurines+3d+model_basecolor","uri":"decorative-penguin-figurines-3d-model_basecolor.jpg"}],"accessors":[{"bufferView":0,"componentType":5126,"count":1397,"max":[0.10000000149011612,0.22333332896232605,0.1133333295583725],"min":[-0.10000000149011612,0,-0.1133333295583725],"type":"VEC3"},{"bufferView":1,"componentType":5126,"count":1397,"type":"VEC3"},{"bufferView":2,"componentType":5126,"count":1397,"type":"VEC2"},{"bufferView":3,"componentType":5123,"count":4164,"type":"SCALAR"}],"bufferViews":[{"buffer":0,"byteLength":16764,"byteOffset":0,"target":34962},{"buffer":0,"byteLength":16764,"byteOffset":16764,"target":34962},{"buffer":0,"byteLength":11176,"byteOffset":33528,"target":34962},{"buffer":0,"byteLength":8328,"byteOffset":44704,"target":34963}],"samplers":[{"magFilter":9729,"minFilter":9987}],"buffers":[{"byteLength":53032,"uri":"penguin-01-43-snowflake.bin"}]}