{"asset":{"generator":"Khronos glTF Blender I/O v5.0.21","version":"2.0"},"scene":0,"scenes":[{"name":"Scene","nodes":[0]}],"nodes":[{"mesh":0,"name":"penguin-01-22-starry-night"}],"materials":[{"doubleSided":true,"name":"tripo_node_84a55d80-eddb-424b-b2ae-e969e9b1fe3f_material","pbrMetallicRoughness":{"baseColorTexture":{"index":0},"metallicFactor":0,"roughnessFactor":0.5}}],"meshes":[{"name":"meshes[0].022","primitives":[{"attributes":{"POSITION":0,"NORMAL":1,"TEXCOORD_0":2},"indices":3,"material":0}]}],"textures":[{"sampler":0,"source":0}],"images":[{"mimeType":"image/jpeg","name":"decorative+penguin+figurines+3d+model_basecolor","uri":"decorative-penguin-figurines-3d-model_basecolor.jpg"}],"accessors":[{"bufferView":0,"componentType":5126,"count":3652,"max":[0.09999999403953552,0.22458629310131073,0.11252954602241516],"min":[-0.10000000149011612,0,-0.11252954602241516],"type":"VEC3"},{"bufferView":1,"componentType":5126,"count":3652,"type":"VEC3"},{"bufferView":2,"componentType":5126,"count":3652,"type":"VEC2"},{"bufferView":3,"componentType":5123,"count":8412,"type":"SCALAR"}],"bufferViews":[{"buffer":0,"byteLength":43824,"byteOffset":0,"target":34962},{"buffer":0,"byteLength":43824,"byteOffset":43824,"target":34962},{"buffer":0,"byteLength":29216,"byteOffset":87648,"target":34962},{"buffer":0,"byteLength":16824,"byteOffset":116864,"target":34963}],"samplers":[{"magFilter":9729,"minFilter":9987}],"buffers":[{"byteLength":133688,"uri":"penguin-01-22-starry-night.bin"}]}